Coordinates
version=1
nRows=11
nColumns=36
inDegrees=yes

Units are S.I. units (second, meters, Newtons, ...)
If the header above contains a line with 'inDegrees', this indicates whether rotational values are in degrees (yes) or radians (no).

endheader
time	pelvis_tilt	pelvis_list	pelvis_rotation	pelvis_tx	pelvis_ty	pelvis_tz	hip_flexion_r	hip_adduction_r	hip_rotation_r	knee_angle_r	knee_angle_r_beta	ankle_angle_r	subtalar_angle_r	mtp_angle_r	hip_flexion_l	hip_adduction_l	hip_rotation_l	knee_angle_l	knee_angle_l_beta	ankle_angle_l	subtalar_angle_l	mtp_angle_l	lumbar_extension	lumbar_bending	lumbar_rotation	arm_flex_r	arm_add_r	arm_rot_r	elbow_flex_r	pro_sup_r	arm_flex_l	arm_add_l	arm_rot_l	elbow_flex_l	pro_sup_l
      8.21666670	     -5.11662433	      9.16430148	    -11.80188086	      0.33019587	      0.84098563	     -0.03333211	     37.35610835	     -0.49301212	      5.47652043	     53.33533507	      0.93087720	     16.90450400	    -18.24470002	     -7.49999987	     57.96010004	     -1.68806870	      4.06932439	     18.42873226	      0.32164205	     -8.85149574	    -20.11285744	     -7.49999987	    -26.44460423	      6.10943934	    -10.85407532	     66.94336171	     24.98460055	     60.50451191	    127.12082471	     94.58342079	     66.90660063	     15.75901391	     61.26757254	    120.22103543	     86.96159994
      8.23333330	     -5.31654966	      9.54459820	    -11.43063928	      0.33555447	      0.84440984	     -0.03576218	     36.83735610	     -1.35976455	      4.99294979	     51.77589592	      0.90365986	     15.63020684	    -18.93972572	     -7.49999987	     57.97948967	     -1.10292069	      3.80156833	     18.67740979	      0.32598230	     -8.95682687	    -20.04355639	     -7.49999987	    -25.82792596	      5.90089908	    -11.27290652	     65.81050750	     24.83905734	     60.92823125	    127.49456113	     94.61047979	     67.40512822	     15.72267488	     61.91609586	    120.48522806	     86.99640668
      8.25000000	     -4.98406777	      9.56218470	    -11.48785305	      0.33456969	      0.85050473	     -0.03571986	     35.71822487	     -1.67963916	      4.63106266	     50.10792962	      0.87454835	     14.20112241	    -19.17901480	     -7.49999987	     57.67014036	     -1.06595713	      3.08405797	     19.14080480	      0.33407007	     -8.56792837	    -18.77237556	     -7.49999987	    -25.60445158	      5.54438860	    -11.24252930	     64.82556826	     24.26305504	     60.35028458	    127.71075345	     94.56563499	     68.40256034	     15.76013587	     62.18422969	    120.27541633	     86.96926303
      8.26666670	     -5.10147778	      9.38249280	    -10.97827920	      0.33138100	      0.85452618	     -0.03386552	     35.60397314	     -1.66573587	      4.18962966	     49.23995084	      0.85939927	     13.18678261	    -19.28172059	     -7.49999987	     57.97353442	     -1.10203056	      2.30974439	     19.85185318	      0.34648020	     -8.31096435	    -17.68898709	     -7.49999987	    -25.14244991	      5.55168551	    -11.25290194	     64.21345667	     23.79282334	     60.05494445	    127.71352456	     94.55619079	     69.53465885	     15.83342714	     62.95710625	    120.85070903	     86.95253539
      8.28333330	     -4.77092882	      8.79396962	    -10.94084381	      0.33489852	      0.85848705	     -0.03667818	     34.27760537	     -1.39024006	      3.50978971	     47.55760494	      0.83003679	     12.37164481	    -19.21652463	     -7.49999987	     57.51996220	     -1.37093155	      2.25365214	     20.02101374	      0.34943261	     -8.31360077	    -16.83425012	     -7.49999987	    -24.47076383	      5.78075001	    -11.29836659	     63.45857543	     22.90044427	     59.44119385	    127.45607444	     94.53210557	     69.94043644	     15.59652503	     63.63756917	    120.96753350	     86.96130461
      8.30000000	     -4.48843123	      8.20220293	    -10.81470507	      0.33868262	      0.86665153	     -0.03513506	     32.25900924	     -1.01893451	      3.08714971	     44.72751061	      0.78064233	     11.21385250	    -19.90213528	     -7.49999987	     56.66485546	     -1.66762315	      2.01654538	     20.09758841	      0.35076909	     -7.98164703	    -16.19398142	     -7.49999987	    -23.97489306	      5.99723536	    -11.45043207	     62.36778314	     22.20416944	     59.08706655	    127.68408932	     94.60001044	     69.58050382	     15.76522560	     64.62551139	    121.16681391	     86.93835448
      8.31666670	     -4.40507381	      7.97097109	    -10.75385870	      0.33839290	      0.86909325	     -0.03497994	     30.85924107	     -0.80291646	      2.95739463	     42.61158204	      0.74371241	     10.67053902	    -20.80824818	     -7.49999987	     56.19006213	     -1.79966782	      1.66133319	     20.09694256	      0.35075782	     -7.75106423	    -16.69526158	     -7.49999987	    -23.33068118	      5.79548186	    -11.82304227	     61.31180449	     21.62064280	     58.70885148	    128.03365086	     94.09123111	     69.64170568	     15.71644163	     64.89019540	    121.03646515	     86.14048196
      8.33333330	     -4.16378072	      7.25428030	    -10.81294720	      0.33840346	      0.87487013	     -0.03572252	     28.88112255	     -0.16428408	      2.75482805	     39.62938399	      0.69166323	      9.76429102	    -21.57322856	     -7.49999987	     55.24491587	     -2.20293318	      1.74441208	     19.74028811	      0.34453302	     -7.88174153	    -16.73610512	     -7.49999987	    -22.79666438	      6.03679016	    -12.00049568	     60.61640176	     20.89668847	     58.01028966	    127.93381684	     93.40012648	     69.81972487	     15.74135891	     65.11560404	    120.90378041	     85.09610763
      8.35000000	     -3.90240734	      6.93352039	    -10.80906478	      0.34596923	      0.87921316	     -0.03537679	     26.80831603	      0.00434036	      2.50130458	     36.70459511	      0.64061604	      8.88531219	    -21.73091890	     -7.49999987	     53.95317345	     -2.10118335	      2.55195647	     19.22639259	      0.33556385	     -8.02418088	    -17.10100129	     -7.49999987	    -21.79387738	      6.05904332	    -12.62032719	     59.43764681	     20.46340977	     57.94741220	    127.13207377	     93.68385309	     68.79157384	     15.49662603	     65.41128097	    120.62453365	     85.10730756
      8.36666670	     -3.45005116	      6.61964531	    -10.98594955	      0.34906281	      0.88503625	     -0.03347674	     24.71332463	      0.32687828	      2.46211282	     34.12706181	      0.59562959	      7.84202443	    -22.49499678	     -7.49999987	     52.21235323	     -1.83729092	      3.80651477	     18.41990758	      0.32148804	     -8.56641093	    -17.95000472	     -7.49999987	    -21.07759230	      5.91529439	    -13.33069862	     58.29747031	     20.11985487	     57.88022572	    126.46929415	     93.84928985	     67.95017719	     14.65984517	     65.68755468	    120.41310256	     84.54586320
      8.38333330	     -3.76955048	      6.69495613	    -10.69302558	      0.35162685	      0.88840924	     -0.03598627	     23.94883416	      0.04947401	      2.08233957	     32.16880070	      0.56145149	      6.57686469	    -23.19091861	     -7.49999987	     51.52174101	     -0.87042056	      4.90775469	     17.71873624	      0.30925029	     -9.28477509	    -18.84724344	     -7.49999987	    -20.02404150	      5.97299498	    -13.73692381	     57.16618690	     19.64778275	     58.08305826	    126.35553135	     93.83796702	     67.13964502	     14.95973168	     66.06257836	    121.12739842	     84.07142723
